# xmcd CD database file
#
# Track frame offsets:
#	150
#	13896
#	28734
#	44625
#	58289
#	72157
#	86346
#	105136
#	119643
#	134815
#	145843
#	160896
#	182398
#	195360
#	209783
#
# Disc length: 2971 seconds
#
# Revision: 0
# Processed by: cddbd v1.5.2PL0 Copyright (c) Steve Scherf et al.
# Submitted via: CDex 1.51
#
DISCID=de0b990f
DTITLE=Sarah Vaughan - Jazz Profiles
DYEAR=2007
DGENRE=Jazz
TTITLE0=Ain't Misbehavin'
TTITLE1=Summertime
TTITLE2=Wave
TTITLE3=Just friends
TTITLE4=Thinking of you
TTITLE5=East of the sun(And west of the moon)
TTITLE6=So many stars
TTITLE7=It might as well be spring
TTITLE8=The nearness of you
TTITLE9=I cried for you
TTITLE10=Black Coffee
TTITLE11=Nothing will be as it was
TTITLE12=Can't get out of this mood
TTITLE13=You're Mine,You
TTITLE14=Mean to me
EXTD=YEAR: 2007
EXTT0=
EXTT1=
EXTT2=
EXTT3=
EXTT4=
EXTT5=
EXTT6=
EXTT7=
EXTT8=
EXTT9=
EXTT10=
EXTT11=
EXTT12=
EXTT13=
EXTT14=
PLAYORDER=
